# xmcd CD database file
#
# Track frame offsets:
#	150
#	21162
#	40097
#	52350
#	67330
#	80892
#	93187
#	128130
#	151092
#	171350
#
# Disc length: 2520 seconds
#
# Revision: 2
# Processed by: cddbd v1.5PL3 Copyright (c) Steve Scherf et al.
# Submitted via: CDex 1.51
#
DISCID=8909d60a
DTITLE=シセル・シルシェブー - 聖しこの夜
DYEAR=1900
DGENRE=Vocal
TTITLE0=きよしこのよる　賛美歌109番
TTITLE1=さやかに星はきらめき　賛美歌第二編219番
TTITLE2=今、クリスマス・キャンドルが灯る
TTITLE3=エサイの根より　賛美歌96番
TTITLE4=静かな道を光りがてらす
TTITLE5=イエスきみはいとうるわし　賛美歌166番
TTITLE6=クリスマス・メドレー
TTITLE7=マリアの男の子
TTITLE8=クリスマスの夜はとても嬉しい
TTITLE9=大きな星
EXTD=
EXTT0=
EXTT1=
EXTT2=
EXTT3=
EXTT4=
EXTT5=
EXTT6=Et Barn Er F dt I Betlehem\nHer Kommer Dine Arme \nSm \nDet Kimer N  Til Julefest\nJeg Synger Julekvad\n
EXTT7=
EXTT8=
EXTT9=
PLAYORDER=
